<svg width="40" height="28" viewBox="0 0 40 28" fill="none" xmlns="http://www.w3.org/2000/svg">
  <g clip-path="url(#clip0_580:2925)">
  <path d="M17.73 7.08572C17.73 10.5723 14.849 13.4214 11.2668 13.4214C7.68469 13.4214 4.80371 10.5723 4.80371 7.08572C4.80371 3.59914 7.68469 0.75 11.2668 0.75C14.849 0.75 17.73 3.59914 17.73 7.08572Z" stroke-width="1.5"/>
  <path d="M21.7433 24.6631V27.25H0.75V24.6631C0.75 23.653 0.939777 22.6536 1.30772 21.7222C1.67564 20.7908 2.21404 19.9468 2.89053 19.2374C4.25618 17.8055 6.1006 17.0081 8.01584 17.0081H14.4775C15.4266 17.0081 16.3673 17.204 17.2462 17.5858C18.1253 17.9676 18.9264 18.5282 19.6028 19.2374C20.2793 19.9468 20.8177 20.7908 21.1856 21.7222C21.5535 22.6536 21.7433 23.653 21.7433 24.6631Z" stroke-width="1.5"/>
  <path d="M34.2625 9.59168C34.2625 12.5995 31.7766 15.0606 28.6818 15.0606C25.587 15.0606 23.1011 12.5995 23.1011 9.59168C23.1011 6.58385 25.587 4.1228 28.6818 4.1228C31.7766 4.1228 34.2625 6.58385 34.2625 9.59168Z" stroke-width="1.5"/>
  <path d="M37.83 25.1736V27.25H24.4255L24.4255 24.7822L24.4255 24.7816C24.424 22.9252 23.8422 21.1235 22.7733 19.6294C23.7109 19.0959 24.7719 18.8133 25.8551 18.8145H25.856H31.549C33.2122 18.8145 34.8088 19.4825 35.9874 20.6741C37.1662 21.8661 37.83 23.4844 37.83 25.1736Z" stroke-width="1.5"/>
  </g>
  <defs>
  <clipPath id="clip0_580:2925">
  <rect width="39.375" height="28" fill="white"/>
  </clipPath>
  </defs>
  </svg>
  