<svg width="35" height="32" viewBox="0 0 35 32" fill="none" xmlns="http://www.w3.org/2000/svg">
  <g clip-path="url(#clip0_580:2926)">
  <path d="M23.0223 24.9373C23.1915 24.6665 23.3247 24.3763 23.4186 24.0736C23.486 23.8833 23.5573 23.7045 23.5831 23.6455C23.6088 23.5865 23.6841 23.3601 23.7475 23.1394C23.8979 22.6496 23.9818 22.1431 23.9972 21.6327C23.9972 21.4424 23.9972 21.197 23.9972 21.0981C23.9972 20.866 23.9972 20.2172 23.9774 20.0954C23.9774 20.0174 23.9615 19.7435 23.9615 19.1613C23.9615 18.8778 23.9615 18.7466 23.9615 18.465C23.9545 18.326 23.9591 18.1866 23.9754 18.0483C24.016 17.8467 24.0931 17.6536 24.2033 17.4776C24.4007 17.2366 24.6442 17.0338 24.9206 16.8802C25.2436 16.7147 25.3169 16.6995 26.1987 16.6024C26.3228 16.5948 26.4453 16.5718 26.5633 16.5339C26.5999 16.4907 26.6257 16.4399 26.6386 16.3856C26.6742 16.279 26.6663 16.2467 26.5534 15.9442C26.381 15.48 26.3552 15.2288 26.3413 14.5135C26.3451 14.4443 26.3378 14.375 26.3195 14.308C26.3126 14.2992 26.3078 14.2889 26.3054 14.2781C26.303 14.2673 26.3031 14.256 26.3057 14.2452C26.3057 14.1786 26.488 14.0873 26.8724 13.9465C27.4411 13.743 27.5441 13.5185 27.1775 13.2826C27.0705 13.2141 27.0547 13.2122 26.8189 13.2236C26.7208 13.2343 26.6217 13.2343 26.5236 13.2236C26.488 13.2084 26.49 13.1684 26.5236 12.9458C26.5448 12.8245 26.5541 12.7016 26.5514 12.5786C26.5363 12.4939 26.4986 12.4142 26.4421 12.3476C26.3855 12.2809 26.3118 12.2294 26.2284 12.1981C26.0461 12.1677 26.0084 12.1411 26.0302 12.0516C26.0377 11.9993 26.0329 11.946 26.0164 11.8956C25.9875 11.8444 25.9464 11.8005 25.8965 11.7674C25.8466 11.7343 25.7892 11.7131 25.7291 11.7054C25.7054 11.7026 25.6829 11.694 25.6638 11.6803C25.6446 11.6666 25.6296 11.6484 25.6201 11.6274C25.5765 11.5589 25.5547 11.5475 25.4378 11.5456H25.303L25.1703 11.7035C24.9265 12.0003 24.9919 11.9755 24.6214 11.9147L23.8288 11.7796C23.5791 11.7339 23.2125 11.6673 23.0184 11.6369C22.8242 11.6065 22.5586 11.5551 22.4239 11.5323C22.2892 11.5094 22.0276 11.46 21.7423 11.4143L20.8387 11.2564C20.6513 11.2233 20.4621 11.2004 20.272 11.1879C20.1412 11.1765 19.9094 11.1442 19.7568 11.1137C19.6363 11.0824 19.5128 11.0626 19.3882 11.0547C19.3308 11.0547 18.9503 11.0015 18.5441 10.9463C18.1379 10.8911 17.5989 10.8131 17.3552 10.7789L16.7489 10.6856C16.6617 10.6702 16.5737 10.6594 16.4853 10.6533C16.4162 10.6433 16.3526 10.6111 16.305 10.562C16.2198 10.4878 16.1782 10.4707 15.9582 10.4364C15.5818 10.3831 14.8347 10.2614 14.6722 10.2252C14.6069 10.2119 14.4741 10.191 14.2918 10.1606C13.9688 10.0997 13.5368 10.0236 13.3109 9.98172C13.1603 9.95699 12.8909 9.90752 12.7165 9.87899C12.1854 9.78386 12.0864 9.76674 11.7852 9.71918C11.6247 9.69444 11.4325 9.6583 11.3512 9.64688C11.2105 9.61644 10.6478 9.52131 9.99192 9.41097C9.87036 9.39936 9.75102 9.37183 9.63723 9.32916C9.6056 9.25471 9.58106 9.17766 9.56391 9.09896L9.51437 8.89539L9.35784 8.87637L8.91992 8.83641C8.68412 8.82119 8.62666 8.8231 8.55533 8.86115C8.49337 8.90025 8.4407 8.95146 8.40077 9.01144C8.33538 9.10847 8.31556 9.12179 8.24225 9.11989C8.18478 9.11918 8.12905 9.13882 8.08571 9.17506C7.99745 9.27179 7.94153 9.39177 7.92521 9.51941C7.92704 9.55467 7.91502 9.5893 7.89152 9.61644C7.87369 9.64688 7.84198 9.69254 7.82415 9.71727C7.68401 10.0561 7.57333 10.4054 7.49324 10.7617C7.4437 10.9748 7.38227 11.2012 7.35849 11.2678C7.30896 11.3915 7.22375 11.6483 7.12071 12.0193C7.08703 12.1373 7.02362 12.3332 6.98399 12.4474C6.89284 12.6928 6.81952 13.098 6.85915 13.1209C6.89878 13.1437 7.08901 13.1722 8.27395 13.3454L9.02494 13.4557L9.15572 13.4747L9.14383 13.6174C9.14383 13.7962 9.17554 13.8286 9.50249 13.8914L9.89879 13.9675C9.98597 13.9846 10.2257 14.0322 10.4358 14.0702L11.1035 14.2015C11.2621 14.2281 11.6722 14.308 12.017 14.3746C13.0078 14.5649 13.0593 14.5782 13.2436 14.7551C13.4279 14.932 13.4814 15.1147 13.4615 15.5009C13.408 16.6005 13.3486 17.04 13.2158 17.2702C13.0831 17.5004 13.0751 17.6203 13.1643 17.7211C13.2535 17.8219 13.1267 17.782 14.6069 18.1016C15.0032 18.1853 15.554 18.2919 15.8176 18.3565C16.0811 18.4212 16.2753 18.4536 16.4457 18.4802C16.6955 18.528 16.9501 18.5484 17.2046 18.5411C17.381 18.5411 17.6227 18.5145 17.7376 18.4973C17.8884 18.4745 18.0408 18.463 18.1934 18.4631C18.5084 18.4631 18.6868 18.5373 18.7878 18.6876C18.9503 18.9159 18.9563 19.0852 18.8473 20.0288C18.7898 20.5596 18.7383 21.0562 18.6808 21.6783C18.6194 22.3575 18.5045 23.265 18.4668 23.3906C18.4475 23.4465 18.4216 23.5001 18.3895 23.5504V23.5504C18.3618 23.6018 18.3261 23.655 18.2925 23.7045C18.0507 24.0641 18.0448 24.1516 18.2647 24.3742C18.506 24.574 18.7852 24.7271 19.087 24.8251C19.1665 24.8568 19.2509 24.8754 19.3367 24.8802C19.3704 24.8802 19.408 24.9202 19.4417 24.9849C19.5012 25.1142 19.5765 25.1561 19.8242 25.1999L20.1769 25.2588C20.2502 25.2741 20.3611 25.2855 20.4919 25.3007C20.8981 25.3444 21.4827 25.3844 21.6947 25.3787C21.983 25.3734 22.2705 25.3473 22.5547 25.3007C22.7404 25.2201 22.9015 25.0949 23.0223 24.9373V24.9373ZM15.3242 17.6716C15.2726 17.6583 15.019 17.5974 14.7674 17.5404C14.5157 17.4833 14.2522 17.4243 14.1729 17.3996C14.0104 17.3482 13.8242 17.2093 13.8063 17.1218C13.8069 16.937 13.8228 16.7525 13.8539 16.5701C13.9252 16.0926 13.9232 16.085 14.0164 15.9423C14.1589 15.7244 14.3659 15.5522 14.6108 15.4476C14.7404 15.3765 14.8927 15.3535 15.0388 15.3829C15.1656 15.3943 15.4351 15.4305 15.661 15.4628C15.661 15.4628 15.6729 15.4628 15.6788 15.4628C15.8909 15.4914 16.1286 15.5294 16.2119 15.5446C16.2951 15.5599 16.4635 15.5808 16.5824 15.5884C16.9133 15.6207 16.8915 15.5884 16.836 15.9328C16.817 16.1311 16.7541 16.3233 16.6516 16.4965C16.5491 16.6697 16.4093 16.82 16.2416 16.9373C16.2239 16.9524 16.2046 16.9658 16.1841 16.9772C15.9608 17.1367 15.7026 17.2453 15.4292 17.2949C15.3713 17.295 15.3147 17.3115 15.2667 17.3425C15.2528 17.3653 15.2925 17.4376 15.3618 17.5233C15.4965 17.6755 15.4847 17.7249 15.3242 17.6716ZM16.9688 17.9589C16.7775 17.9652 16.586 17.9505 16.3981 17.9152L16.2753 17.8923C16.0989 17.8524 15.9463 17.8219 15.9345 17.82C15.9319 17.8198 15.9294 17.8191 15.9272 17.8179C15.925 17.8167 15.9231 17.815 15.9216 17.8131C15.9201 17.8111 15.919 17.8088 15.9185 17.8064C15.918 17.804 15.918 17.8015 15.9186 17.7991C15.9717 17.7733 16.0296 17.7577 16.089 17.7535C16.1796 17.7379 16.2685 17.7143 16.3545 17.6831C16.7769 17.506 17.1467 17.2308 17.4305 16.8821C17.642 16.6157 17.922 16.4066 18.2429 16.2752C18.3801 16.2161 18.5125 16.1474 18.6392 16.0697C18.7641 15.9841 18.7759 15.9803 18.8116 16.0526C18.8218 16.2597 18.8018 16.4672 18.7522 16.669L18.6749 17.2398L18.5738 17.3863C18.2885 17.801 17.7971 17.976 16.9688 17.9589Z" />
  <path d="M33.0991 17.6552C32.7627 21.2424 31.0152 24.5842 28.1962 27.0313C25.3772 29.4783 21.6881 30.8556 17.8459 30.8956C14.0037 30.9356 10.2829 29.6354 7.40659 27.2477C4.5303 24.8599 2.70402 21.5553 2.28271 17.9759" stroke-width="0.8" stroke-linecap="round" stroke-linejoin="round"/>
  <path d="M0.570566 19.862L2.21624 17.0191L4.56527 19.3102" stroke-width="0.7" stroke-linecap="round" stroke-linejoin="round"/>
  <path d="M34.2403 11.0343L33.4653 14.2898L30.8164 12.1378" stroke-width="0.7" stroke-linecap="round" stroke-linejoin="round"/>
  <path d="M2.28271 14.3449C2.72046 10.7365 4.50377 7.40443 7.30067 4.96885C10.0976 2.53328 13.7175 1.1602 17.4865 1.10523C21.2556 1.05026 24.917 2.31715 27.7891 4.67004C30.6611 7.02294 32.5482 10.3015 33.0991 13.8955" stroke-width="0.8" stroke-linecap="round" stroke-linejoin="round"/>
  </g>
  <defs>
  <clipPath id="clip0_580:2926">
  <rect width="35" height="32" fill="white"/>
  </clipPath>
  </defs>
  </svg>
  