<svg width="32" height="32" viewBox="0 0 32 32" fill="none" xmlns="http://www.w3.org/2000/svg">
  <g clip-path="url(#clip0_580:2927)">
  <path d="M14.8878 11.4465L13.7453 14.5546H16.0514L14.8878 11.4465ZM14.8878 11.4465L13.7453 14.5546H16.0514L14.8878 11.4465ZM27.1608 0C21.9919 2.20574 16.0219 0.263185 16.0219 0.263185C16.0219 0.263185 10.0098 2.20574 4.84512 0C4.84512 0 -11.5554 18.4188 16.0009 32C43.5571 18.4188 27.1608 0 27.1608 0ZM6.74657 17.8674L3.711 9.49138H5.56186L7.69941 15.6909L9.7695 9.49138H11.5782L8.55105 17.8674H6.74657ZM17.3542 17.8674L16.6164 15.9624H13.2435L12.5226 17.8674H10.7139L14.0067 9.49138H15.8111L19.184 17.8674H17.3542ZM25.9128 17.341C25.2603 17.8064 24.4691 18.0418 23.6657 18.0094C23.1493 18.0253 22.6355 17.9317 22.1585 17.735C21.6816 17.5384 21.2525 17.2431 20.8999 16.8689C20.14 16.0112 19.7509 14.8919 19.8164 13.7525C19.8164 12.36 20.179 11.278 20.9042 10.5065C21.2706 10.1216 21.7162 9.81907 22.2108 9.61943C22.7054 9.4198 23.2375 9.32769 23.7711 9.34935C24.2325 9.32888 24.6934 9.39879 25.1274 9.55506C25.5615 9.71133 25.9602 9.9509 26.3007 10.2601C26.7187 10.6879 27.0103 11.221 27.1439 11.8016L25.4575 12.1984C25.3783 11.792 25.1549 11.4272 24.8279 11.1697C24.5008 10.9123 24.0915 10.7793 23.6741 10.7948C23.3854 10.7857 23.0984 10.8411 22.8342 10.9568C22.57 11.0725 22.3355 11.2455 22.1479 11.4632C21.76 11.9102 21.5661 12.6287 21.5661 13.6272C21.5661 14.6883 21.7558 15.4402 22.1395 15.8914C22.3219 16.1088 22.5518 16.2823 22.8118 16.3988C23.0718 16.5153 23.3551 16.5718 23.6404 16.564C24.0691 16.5769 24.4867 16.4276 24.8082 16.1462C25.1804 15.7827 25.4268 15.3118 25.5123 14.801L27.1692 15.3191C26.9811 16.1136 26.5335 16.8243 25.896 17.341H25.9128ZM13.7453 14.5546H16.0514L14.8878 11.4465L13.7453 14.5546Z"/>
  </g>
  <defs>
  <clipPath id="clip0_580:2927">
  <rect width="32" height="32" fill="white"/>
  </clipPath>
  </defs>
  </svg>
  