<svg width="38" height="11" viewBox="0 0 38 11" fill="none" xmlns="http://www.w3.org/2000/svg">
<g clip-path="url(#clip0)">
<path fill-rule="evenodd" clip-rule="evenodd" d="M11.6355 4.05569C11.6383 4.14865 11.8796 4.88726 11.8796 5.55681C11.8796 6.46628 11.8451 6.93986 11.47 7.779C11.299 8.16339 11.1032 8.45732 10.8508 8.79023C10.768 8.8995 10.6756 8.99373 10.5984 9.09799C11.3252 9.09799 12.0507 9.13314 12.7788 9.13314L13.0616 6.81802L14.0987 9.26505L15.1165 6.81802C15.1179 6.87707 15.1372 7.01525 15.1483 7.08558L15.2379 7.93099C15.2517 8.11314 15.2751 8.3179 15.2958 8.49C15.3193 8.67716 15.3386 8.97739 15.3703 9.14698C15.9482 9.1143 16.5081 9.06782 17.0832 9.01633C17.086 8.97362 17.0501 8.77639 17.0405 8.71737L16.4185 4.03809H14.8517L14.3042 5.41236L14.107 5.85578L14.0201 5.62967L13.4753 4.27299C13.4422 4.18506 13.4078 4.12225 13.3871 4.03935C12.783 4.03935 12.2217 4.05819 11.6369 4.05819L11.6355 4.05569Z" fill="#FEFEFE"/>
<path fill-rule="evenodd" clip-rule="evenodd" d="M20.4469 7.66944C19.2498 7.66944 18.7326 6.44217 19.516 5.7274C20.3076 5.0051 21.6482 5.54024 21.6482 6.52006C21.6482 6.86801 21.4937 7.13559 21.2979 7.31269C21.0717 7.51619 20.8041 7.66944 20.4483 7.66944H20.4469ZM17.3135 6.52006C17.3135 7.11549 17.4983 7.57901 17.872 8.03249C18.1686 8.39301 18.6582 8.74222 19.134 8.92185C19.3133 8.9897 19.4995 9.04496 19.7077 9.08516C19.8029 9.10401 19.938 9.12285 20.0235 9.13038C20.2842 9.15425 20.4814 9.14295 20.7324 9.13289C21.7682 9.09017 22.7005 8.45079 23.1887 7.64433C23.2742 7.50364 23.3597 7.30642 23.397 7.14813C23.6342 6.14947 23.3556 5.39703 22.5998 4.7074C22.1185 4.26772 21.3282 3.9248 20.5904 3.9248C19.9794 3.9248 19.6153 3.93358 19.0498 4.17226C18.734 4.30543 18.4237 4.49762 18.1934 4.70866C17.6569 5.19982 17.3135 5.74624 17.3135 6.52006Z" fill="#FEFEFE"/>
<path fill-rule="evenodd" clip-rule="evenodd" d="M27.2437 4.03634V6.39041C27.1954 6.35776 26.9002 5.89172 26.8451 5.80755L25.8767 4.31771C25.841 4.26372 25.812 4.21974 25.7776 4.16699C25.7197 4.07779 25.7183 4.03634 25.6562 4.03634H24.0481V9.15275C24.586 9.12387 25.2066 9.07989 25.7238 9.04221L25.7169 8.67039C25.7169 7.99707 25.7169 7.32375 25.7169 6.65043C25.7679 6.68437 26.0698 7.15292 26.128 7.23959L27.2313 8.90403L27.3207 9.04095L28.9346 9.03467L28.933 3.92578L27.2437 4.03758V4.03634Z" fill="#FEFEFE"/>
<path fill-rule="evenodd" clip-rule="evenodd" d="M4.61556 5.55674C4.61556 5.84314 4.68313 6.07678 4.82518 6.31043C5.24584 6.99882 6.71052 7.14453 6.71052 7.40958C6.71052 7.75126 6.2471 7.70605 5.8968 7.70605C5.68028 7.70605 5.47477 7.68847 5.27479 7.66083L4.67623 7.5754V9.00243C5.48167 9.08783 6.13954 9.21597 6.94635 9.06899C7.29942 9.00494 7.60835 8.89817 7.84969 8.74365C8.71857 8.18717 8.7641 6.92219 7.99174 6.38958C7.59178 6.11322 7.2015 5.97128 6.74084 5.80546C5.99886 5.53788 6.49123 5.31553 6.89256 5.31553C7.38767 5.31553 7.7959 5.36202 8.27586 5.46378C8.08415 4.70253 7.97659 4.43621 7.72696 3.9928L7.67593 3.984C7.64281 3.97896 7.60972 3.97396 7.57524 3.96892C6.25951 3.7893 4.61279 4.04429 4.61279 5.55548L4.61556 5.55674Z" fill="#FEFEFE"/>
<path fill-rule="evenodd" clip-rule="evenodd" d="M29.7258 4.09294V9.04102L32.84 9.04228L33.0318 8.34509C33.0636 8.21948 33.0952 8.10768 33.12 7.99965L33.2068 7.63286H31.4774V7.11405H32.5559V5.87169H31.4774V5.38933L33.0678 5.39059L33.0083 5.08783C32.9517 4.84665 32.8884 4.60297 32.8276 4.36176L32.7338 4.03516H29.7881C29.7411 4.03516 29.7274 4.04772 29.7274 4.09044L29.7258 4.09294Z" fill="#FEFEFE"/>
<path fill-rule="evenodd" clip-rule="evenodd" d="M33.0638 4.05518C33.0708 4.12427 33.199 4.36042 33.2416 4.44962L34.2237 6.39041C34.2594 6.45447 34.2816 6.51226 34.3188 6.58261L34.6223 7.17677C34.7366 7.43052 34.796 7.29487 34.5561 7.74959L33.9546 8.91283C33.9119 9.01834 34.0125 8.97815 34.1353 8.9907L35.2815 9.09623C35.3738 9.10376 35.8029 9.1314 35.851 9.15275C35.8634 9.10627 35.8923 9.04724 35.9104 9.00203L37.3115 5.66308C37.4896 5.25985 37.6675 4.79506 37.8425 4.3868C37.8826 4.29386 37.9169 4.21471 37.9474 4.11798L37.9681 4.05518C37.5612 4.05518 36.6482 3.92578 36.178 3.92578L35.7587 5.15685C35.7339 5.23724 35.7145 5.28875 35.691 5.35531C35.6703 5.4131 35.6331 5.51736 35.6276 5.57515C35.556 5.52743 35.1628 4.46469 35.1215 4.34912C35.0938 4.27249 35.0649 4.21471 35.04 4.14562C35.0139 4.07529 34.9726 3.98733 34.956 3.92578L34.5959 3.94338L34.1505 3.97353L33.534 4.02127C33.3864 4.03508 33.2334 4.05518 33.0625 4.05518H33.0638Z" fill="#FEFEFE"/>
<path fill-rule="evenodd" clip-rule="evenodd" d="M0.240602 6.4098C0.240602 6.91103 0.229569 7.05801 0.415756 7.54791C0.659869 8.18982 1.32325 8.78274 2.03903 8.99754C2.6431 9.17968 3.16442 9.17967 3.81125 9.07794C3.88712 9.06663 3.96297 9.0528 4.03744 9.03899L4.0733 8.81539L4.11468 8.53777L4.20984 7.89335L4.26914 7.44741L4.0857 7.52153C3.44301 7.81422 2.44037 7.70745 2.07765 6.99646C1.93422 6.71507 1.94663 6.29927 2.08593 6.03295C2.21833 5.7792 2.49002 5.5757 2.78104 5.47897C3.16719 5.35086 3.51198 5.381 3.77403 5.44005C3.79197 5.44382 3.80988 5.44883 3.82782 5.45259C3.92021 5.47647 4.01262 5.50661 4.10641 5.53175L4.26363 5.59077C4.22915 5.49781 3.99468 4.06327 3.9685 4.01805C3.88159 3.9389 3.16582 3.92383 2.96721 3.92383C2.51209 3.92383 1.98663 4.07961 1.64597 4.25797C1.32738 4.42505 0.963284 4.72025 0.753651 5.00164C0.661249 5.12599 0.568844 5.25413 0.499886 5.4011C0.371622 5.67493 0.240602 6.02668 0.240602 6.4073V6.4098Z" fill="#FEFEFE"/>
<path fill-rule="evenodd" clip-rule="evenodd" d="M8.13647 1.60845C7.49931 1.60845 7.60827 1.09844 7.87582 0.83464C8.18476 0.530645 9.07155 0.254287 9.07155 0.886144C9.07155 1.21903 8.51714 1.60845 8.1351 1.60845H8.13647ZM7.38345 1.12607C7.38345 1.57579 7.66894 1.84712 8.13096 1.94636C8.21094 1.96394 8.39851 1.94008 8.48679 1.97525C8.64125 2.0368 8.81504 2.21392 8.82605 2.40739C8.83158 2.50786 8.77642 2.6272 8.76675 2.72016C8.8578 2.74277 9.03984 2.90231 9.09777 2.97391C9.43703 3.38844 9.19292 3.66607 9.19292 3.81305C9.19292 3.91605 9.66045 4.02909 9.66045 4.48007C9.66045 4.87199 9.26463 5.09433 8.91984 5.1961C8.75158 5.24508 8.65505 5.27396 8.7447 5.44355C9.50049 5.44355 9.91285 5.5943 10.1211 6.19223C10.1694 6.33167 10.2562 6.41206 10.3514 6.31409C10.3611 6.30403 10.4921 5.76388 11.092 5.99376C11.1803 6.02767 11.2258 6.07415 11.3086 6.09299C11.4217 6.0239 11.3982 5.93221 11.3761 5.77268C11.343 5.53651 11.3941 5.68475 11.2203 5.43224C11.1817 5.37699 11.1568 5.33678 11.121 5.2815C10.5638 4.44112 11.1458 3.91228 11.1458 3.7766C11.1458 3.45126 10.9003 2.72142 10.7734 2.42873C10.5045 1.80441 10.2301 1.34339 9.84388 0.810773C9.52254 0.367342 9.59978 0.337195 9.07432 0.270616C8.94191 0.254287 8.83019 0.235445 8.69641 0.207808C8.58195 0.18394 8.45368 0.150024 8.35302 0.113594C7.73651 -0.108749 8.06062 0.0206373 7.85928 0.283177C7.82203 0.33217 7.80135 0.348499 7.75996 0.396234C7.59586 0.585916 7.38208 0.840922 7.38208 1.12733L7.38345 1.12607Z" fill="#D45F93"/>
<path fill-rule="evenodd" clip-rule="evenodd" d="M9.13217 6.66973C9.13217 7.29656 9.09078 7.68596 8.87563 8.27135C8.66875 8.83411 8.40947 9.34411 8.0302 9.80012C7.96816 9.87421 7.91299 9.95084 7.84402 10.0199L7.64128 10.2247C7.29098 10.5865 7.1434 10.643 6.76413 10.9081C6.74482 10.9219 6.73931 10.9244 6.72827 10.9332C7.2096 10.9332 8.22467 10.496 8.63843 10.2234C8.99423 9.98979 9.14732 9.87297 9.46316 9.58405C9.75416 9.319 10.0355 8.97355 10.2562 8.65574C10.3955 8.45601 10.6754 7.96862 10.7637 7.74628C10.7899 7.67843 10.8161 7.61687 10.8451 7.54278C10.9003 7.4071 10.9471 7.28273 10.9954 7.12445C11.0451 6.96619 11.2037 6.37453 11.2078 6.2062C10.7072 5.98763 10.5899 6.4097 10.5017 6.4901C10.3679 6.61194 10.1169 6.6132 9.98035 6.4901C9.8976 6.41598 9.91554 6.3984 9.88933 6.29538C9.79831 5.92858 9.30594 5.61328 8.86736 5.61328C8.70187 5.61328 8.91702 5.74643 9.02735 6.06049C9.08528 6.22378 9.13077 6.45869 9.13077 6.66973H9.13217Z" fill="#D45F93"/>
</g>
<defs>
<clipPath id="clip0">
<rect width="38" height="11" fill="white"/>
</clipPath>
</defs>
</svg>
