<svg width="31" height="9" viewBox="0 0 31 9" fill="none" xmlns="http://www.w3.org/2000/svg">
<g clip-path="url(#clip0)">
<path fill-rule="evenodd" clip-rule="evenodd" d="M9.49208 3.31811C9.49432 3.39417 9.69122 3.99849 9.69122 4.5463C9.69122 5.29041 9.66309 5.67789 9.35706 6.36446C9.21756 6.67896 9.05779 6.91945 8.85188 7.19182C8.78438 7.28123 8.70901 7.35833 8.646 7.44363C9.23894 7.44363 9.83074 7.4724 10.4248 7.4724L10.6554 5.5782L11.5015 7.58032L12.3319 5.5782C12.333 5.62651 12.3487 5.73957 12.3577 5.79711L12.4309 6.48881C12.4421 6.63785 12.4612 6.80538 12.4781 6.94618C12.4972 7.09932 12.513 7.34496 12.5389 7.48371C13.0103 7.45698 13.4671 7.41895 13.9363 7.37682C13.9385 7.34188 13.9092 7.18051 13.9014 7.13221L13.394 3.30371H12.1158L11.6692 4.42812L11.5083 4.79091L11.4374 4.60592L10.993 3.49591C10.966 3.42397 10.9378 3.37257 10.921 3.30475C10.4282 3.30475 9.97024 3.32016 9.4932 3.32016L9.49208 3.31811Z" fill="#FEFEFE"/>
<path fill-rule="evenodd" clip-rule="evenodd" d="M16.6805 6.27473C15.7039 6.27473 15.282 5.2706 15.9211 4.68579C16.5669 4.09481 17.6605 4.53266 17.6605 5.33433C17.6605 5.61901 17.5345 5.83794 17.3747 5.98284C17.1902 6.14934 16.9719 6.27473 16.6816 6.27473H16.6805ZM14.1243 5.33433C14.1243 5.82149 14.275 6.20074 14.5799 6.57177C14.8218 6.86674 15.2212 7.15246 15.6094 7.29943C15.7557 7.35494 15.9076 7.40015 16.0775 7.43305C16.1551 7.44847 16.2654 7.46388 16.3351 7.47005C16.5477 7.48958 16.7086 7.48033 16.9134 7.4721C17.7584 7.43715 18.5189 6.91402 18.9172 6.25418C18.987 6.13908 19.0567 5.97771 19.0871 5.84821C19.2806 5.03112 19.0534 4.41548 18.4368 3.85124C18.0441 3.49151 17.3994 3.21094 16.7975 3.21094C16.2991 3.21094 16.0021 3.21812 15.5408 3.4134C15.2831 3.52236 15.03 3.67961 14.8421 3.85227C14.4044 4.25413 14.1243 4.7012 14.1243 5.33433Z" fill="#FEFEFE"/>
<path fill-rule="evenodd" clip-rule="evenodd" d="M22.2251 3.30237V5.22843C22.1857 5.20172 21.9449 4.82041 21.8999 4.75155L21.11 3.53258C21.0808 3.48841 21.0572 3.45242 21.0291 3.40926C20.9818 3.33629 20.9807 3.30237 20.9301 3.30237H19.6182V7.48852C20.057 7.46489 20.5633 7.42891 20.9852 7.39808L20.9795 7.09386C20.9795 6.54297 20.9795 5.99207 20.9795 5.44118C21.0212 5.46894 21.2675 5.8523 21.3149 5.92321L22.215 7.28503L22.288 7.39705L23.6045 7.39192L23.6032 3.21191L22.2251 3.30339V3.30237Z" fill="#FEFEFE"/>
<path fill-rule="evenodd" clip-rule="evenodd" d="M3.76544 4.54607C3.76544 4.78039 3.82057 4.97156 3.93645 5.16272C4.27962 5.72595 5.47449 5.84517 5.47449 6.06203C5.47449 6.34159 5.09644 6.30459 4.81067 6.30459C4.63403 6.30459 4.46638 6.29021 4.30324 6.2676L3.81493 6.1977V7.36527C4.47201 7.43514 5.00869 7.53999 5.66688 7.41973C5.9549 7.36732 6.20693 7.27996 6.40381 7.15354C7.11264 6.69824 7.14977 5.66325 6.51969 5.22748C6.19341 5.00137 5.87502 4.88523 5.49922 4.74956C4.89392 4.53063 5.29559 4.34872 5.62299 4.34872C6.0269 4.34872 6.35993 4.38675 6.75148 4.47001C6.59508 3.84717 6.50733 3.62927 6.30368 3.26648L6.26206 3.25928C6.23504 3.25516 6.20805 3.25106 6.17992 3.24695C5.10656 3.09998 3.76318 3.30861 3.76318 4.54503L3.76544 4.54607Z" fill="#FEFEFE"/>
<path fill-rule="evenodd" clip-rule="evenodd" d="M24.25 3.34904V7.39746L26.7905 7.3985L26.947 6.82807C26.9729 6.7253 26.9987 6.63382 27.0189 6.54543L27.0898 6.24533H25.679V5.82086H26.5588V4.80437H25.679V4.40971L26.9763 4.41075L26.9278 4.16304C26.8816 3.96571 26.83 3.76633 26.7804 3.56898L26.7039 3.30176H24.3008C24.2624 3.30176 24.2513 3.31204 24.2513 3.34699L24.25 3.34904Z" fill="#FEFEFE"/>
<path fill-rule="evenodd" clip-rule="evenodd" d="M26.973 3.31779C26.9787 3.37432 27.0833 3.56753 27.1181 3.64051L27.9192 5.22843C27.9483 5.28084 27.9665 5.32812 27.9968 5.38568L28.2444 5.87182C28.3376 6.07943 28.3861 5.96844 28.1904 6.34049L27.6997 7.29223C27.6649 7.37855 27.7469 7.34567 27.8471 7.35594L28.7822 7.44228C28.8574 7.44844 29.2075 7.47106 29.2467 7.48852C29.2569 7.45049 29.2805 7.4022 29.2952 7.3652L30.4382 4.63334C30.5835 4.30342 30.7286 3.92314 30.8714 3.58911C30.9041 3.51307 30.9321 3.44831 30.957 3.36917L30.9739 3.31779C30.6419 3.31779 29.8971 3.21191 29.5135 3.21191L29.1714 4.21915C29.1512 4.28492 29.1354 4.32707 29.1162 4.38153C29.0993 4.42881 29.069 4.51412 29.0645 4.5614C29.0061 4.52235 28.6854 3.65284 28.6516 3.55828C28.6291 3.49559 28.6054 3.44831 28.5852 3.39178C28.5639 3.33424 28.5301 3.26228 28.5167 3.21191L28.2229 3.22631L27.8595 3.25098L27.3566 3.29004C27.2362 3.30134 27.1113 3.31779 26.9719 3.31779H26.973Z" fill="#FEFEFE"/>
<path fill-rule="evenodd" clip-rule="evenodd" d="M0.196146 5.24394C0.196146 5.65404 0.187145 5.77429 0.339034 6.17512C0.538179 6.70031 1.07936 7.18543 1.66329 7.36118C2.15608 7.5102 2.58137 7.5102 3.10904 7.42696C3.17094 7.41771 3.23281 7.40639 3.29357 7.39509L3.32282 7.21215L3.35658 6.985L3.43421 6.45775L3.48258 6.09289L3.33294 6.15354C2.80864 6.39301 1.99069 6.30565 1.69479 5.72393C1.57778 5.4937 1.58791 5.1535 1.70154 4.93561C1.80955 4.72799 2.0312 4.56149 2.26861 4.48235C2.58362 4.37753 2.8649 4.40219 3.07868 4.45051C3.09331 4.45359 3.10793 4.45769 3.12256 4.46077C3.19793 4.4803 3.27332 4.50497 3.34983 4.52553L3.47809 4.57382C3.44996 4.49777 3.25869 3.32405 3.23732 3.28705C3.16642 3.22229 2.58251 3.20996 2.42048 3.20996C2.0492 3.20996 1.62053 3.33742 1.34263 3.48335C1.08273 3.62005 0.785702 3.86158 0.614686 4.09181C0.539305 4.19355 0.463922 4.29839 0.407667 4.41864C0.30303 4.64268 0.196146 4.93047 0.196146 5.24189V5.24394Z" fill="#FEFEFE"/>
<path fill-rule="evenodd" clip-rule="evenodd" d="M6.63764 1.316C6.11785 1.316 6.20674 0.898721 6.42501 0.682887C6.67703 0.434164 7.40047 0.208053 7.40047 0.725027C7.40047 0.99739 6.94819 1.316 6.63652 1.316H6.63764ZM6.02333 0.921334C6.02333 1.28928 6.25623 1.51128 6.63315 1.59248C6.6984 1.60686 6.85141 1.58734 6.92343 1.61611C7.04943 1.66647 7.19121 1.81139 7.20019 1.96968C7.20471 2.05189 7.15971 2.14953 7.15182 2.22558C7.22609 2.24408 7.3746 2.37462 7.42186 2.4332C7.69862 2.77236 7.49948 2.99951 7.49948 3.11976C7.49948 3.20404 7.88089 3.29653 7.88089 3.66551C7.88089 3.98618 7.55798 4.16809 7.2767 4.25135C7.13944 4.29143 7.0607 4.31506 7.13383 4.45381C7.75039 4.45381 8.08679 4.57715 8.25668 5.06637C8.29605 5.18046 8.36693 5.24623 8.44458 5.16608C8.45245 5.15784 8.55934 4.7159 9.04876 4.90398C9.12076 4.93173 9.1579 4.96976 9.2254 4.98518C9.31766 4.92865 9.29854 4.85362 9.28053 4.7231C9.25353 4.52987 9.29516 4.65116 9.15338 4.44456C9.1219 4.39935 9.10163 4.36646 9.07238 4.32123C8.61784 3.63364 9.09263 3.20096 9.09263 3.08995C9.09263 2.82376 8.89237 2.22662 8.78885 1.98714C8.56947 1.47634 8.34557 1.09914 8.03053 0.663359C7.76838 0.300552 7.83139 0.275886 7.40273 0.221413C7.29471 0.208053 7.20357 0.192636 7.09444 0.170025C7.00106 0.150497 6.89642 0.122747 6.8143 0.0929409C6.31136 -0.0889764 6.57577 0.0168851 6.41151 0.231691C6.38112 0.271775 6.36425 0.285135 6.33049 0.324192C6.19662 0.479386 6.02222 0.688027 6.02222 0.92236L6.02333 0.921334Z" fill="#D45F93"/>
<path fill-rule="evenodd" clip-rule="evenodd" d="M7.44985 5.45714C7.44985 5.97 7.41608 6.2886 7.24056 6.76756C7.07179 7.22799 6.86028 7.64527 6.55087 8.01837C6.50026 8.07899 6.45525 8.14168 6.39899 8.19821L6.23359 8.36575C5.94782 8.66175 5.82743 8.708 5.51802 8.92486C5.50227 8.93617 5.49777 8.93822 5.48877 8.94542C5.88144 8.94542 6.70952 8.58774 7.04706 8.36471C7.33732 8.17355 7.4622 8.07798 7.71986 7.84158C7.95725 7.62472 8.18678 7.34208 8.36679 7.08206C8.48044 6.91864 8.70883 6.51987 8.78084 6.33795C8.80223 6.28244 8.82359 6.23208 8.84723 6.17145C8.89223 6.06044 8.93049 5.95869 8.96986 5.82918C9.01037 5.6997 9.13975 5.21561 9.14312 5.07789C8.73472 4.89906 8.63909 5.24439 8.56707 5.31017C8.45794 5.40986 8.25317 5.41089 8.14178 5.31017C8.07427 5.24952 8.08891 5.23514 8.06753 5.15085C7.99327 4.85075 7.5916 4.59277 7.23382 4.59277C7.09881 4.59277 7.27433 4.70171 7.36433 4.95867C7.41159 5.09227 7.44871 5.28447 7.44871 5.45714H7.44985Z" fill="#D45F93"/>
</g>
<defs>
<clipPath id="clip0">
<rect width="31" height="9" fill="white"/>
</clipPath>
</defs>
</svg>
