<svg width="32" height="32" viewBox="0 0 32 32" fill="none" xmlns="http://www.w3.org/2000/svg">
<path fill-rule="evenodd" clip-rule="evenodd" d="M7.30393 23.282C6.9074 23.6665 6.8976 24.2996 7.28203 24.6961C7.66646 25.0926 8.29955 25.1024 8.69607 24.718L15.9938 17.6428L23.8073 25.218C24.2038 25.6024 24.8369 25.5926 25.2213 25.1961C25.6057 24.7996 25.5959 24.1665 25.1994 23.782L17.4304 16.25L25.1994 8.71797C25.5959 8.33354 25.6057 7.70045 25.2213 7.30393C24.8369 6.9074 24.2038 6.8976 23.8073 7.28203L15.9938 14.8572L8.69607 7.78203C8.29955 7.3976 7.66646 7.4074 7.28203 7.80393C6.8976 8.20045 6.9074 8.83354 7.30393 9.21797L14.5572 16.25L7.30393 23.282Z" fill="#515B5F"/>
</svg>
