<svg width="8" height="8" viewBox="0 0 8 8" fill="none" xmlns="http://www.w3.org/2000/svg">
<path d="M6.30484 3.29489H5.95491V2.13509C5.95491 0.962109 5.08614 0 4.00016 0C2.91419 0 2.04541 0.962109 2.04541 2.13509V3.29489H1.69549C1.50243 3.29489 1.3335 3.46623 1.3335 3.69028V7.60461C1.3335 7.81549 1.49036 8 1.69549 8H6.30484C6.4979 8 6.66683 7.82867 6.66683 7.60461V3.6771C6.66683 3.46623 6.4979 3.29489 6.30484 3.29489ZM2.76939 2.13509C2.76939 1.39703 3.32445 0.790774 4.00016 0.790774C4.67588 0.790774 5.23093 1.39703 5.23093 2.13509V3.29489H2.76939V2.13509Z" fill="#D2D2D2"/>
</svg>
