<svg width="32" height="32" viewBox="0 0 32 32" fill="none" xmlns="http://www.w3.org/2000/svg">
<path d="M13.1667 8H10.6667C10.2246 8 9.80072 8.17559 9.48816 8.48816C9.17559 8.80072 9 9.22464 9 9.66667V12.1667M24 12.1667V9.66667C24 9.22464 23.8244 8.80072 23.5118 8.48816C23.1993 8.17559 22.7754 8 22.3333 8H19.8333M19.8333 23H22.3333C22.7754 23 23.1993 22.8244 23.5118 22.5118C23.8244 22.1993 24 21.7754 24 21.3333V18.8333M9 18.8333V21.3333C9 21.7754 9.17559 22.1993 9.48816 22.5118C9.80072 22.8244 10.2246 23 10.6667 23H13.1667" stroke="#D2D2D2" stroke-width="2" stroke-linecap="round" stroke-linejoin="round"/>
</svg>
